<?xml version="1.0" standalone="no"?>
<!DOCTYPE svg PUBLIC "-//W3C//DTD SVG 20010904//EN"
 "http://www.w3.org/TR/2001/REC-SVG-20010904/DTD/svg10.dtd">
<svg version="1.0" xmlns="http://www.w3.org/2000/svg"
 width="1135.000000pt" height="1135.000000pt" viewBox="0 0 1135.000000 1135.000000"
 preserveAspectRatio="xMidYMid meet">
<metadata>
Created by potrace 1.11, written by Peter Selinger 2001-2013
</metadata>
<g transform="translate(0.000000,1135.000000) scale(0.100000,-0.100000)"
fill="#000000" stroke="none">
<path d="M5512 11336 c-174 -43 -340 -180 -422 -351 -46 -96 -63 -172 -62
-282 0 -101 14 -166 58 -261 106 -232 329 -375 584 -375 255 0 478 143 584
375 44 95 58 160 58 261 1 110 -16 186 -62 282 -65 136 -169 240 -305 305 -44
21 -104 43 -133 49 -70 15 -234 13 -300 -3z"/>
<path d="M4995 10233 c-75 -11 -351 -67 -455 -93 -341 -86 -704 -225 -1008
-386 -87 -47 -120 -69 -114 -77 5 -7 127 -217 272 -467 144 -250 265 -458 269
-463 4 -4 86 30 182 77 234 113 471 200 682 250 l27 6 0 -310 0 -310 820 0
820 0 0 310 0 310 28 -6 c210 -50 447 -137 681 -250 96 -47 178 -81 182 -77 4
5 125 213 269 463 145 250 267 460 272 467 6 8 -27 30 -114 77 -304 161 -667
300 -1008 386 -137 34 -400 86 -486 96 -60 6 -62 6 -84 -24 -37 -50 -142 -129
-226 -171 -125 -61 -190 -76 -334 -76 -144 0 -209 15 -334 76 -83 41 -189 121
-225 170 -22 30 -38 33 -116 22z"/>
<path d="M3209 9566 c-430 -273 -793 -598 -1132 -1013 l-67 -82 22 -78 c19
-64 23 -102 22 -208 0 -119 -3 -138 -32 -221 -44 -131 -102 -222 -200 -315
-107 -101 -218 -159 -374 -193 -34 -8 -48 -38 -132 -286 -143 -417 -226 -853
-244 -1269 l-7 -171 551 0 551 0 7 133 c9 164 30 335 61 492 25 125 69 303 77
311 3 2 124 -65 270 -149 l266 -154 407 705 c224 387 403 708 398 712 -4 4
-125 74 -267 156 l-259 148 124 121 c155 149 281 251 463 373 77 52 145 98
149 102 4 4 -101 195 -233 425 -133 230 -256 444 -274 476 l-32 58 -115 -73z"/>
<path d="M8002 9615 c-7 -14 -129 -228 -272 -477 -144 -248 -257 -454 -253
-458 4 -4 72 -50 149 -102 182 -122 308 -224 463 -373 l124 -121 -259 -148
c-142 -82 -263 -152 -267 -156 -5 -4 174 -325 398 -712 l407 -705 266 154
c146 84 267 151 270 149 8 -8 52 -186 77 -311 31 -157 52 -328 61 -492 l7
-133 551 0 551 0 -7 171 c-16 384 -93 809 -215 1184 -48 149 -121 345 -133
358 -4 4 -36 15 -71 23 -35 8 -106 35 -158 60 -78 38 -109 60 -181 132 -100
100 -148 177 -193 307 -28 82 -31 102 -31 220 -1 106 3 144 22 208 l22 78 -67
82 c-319 390 -653 695 -1043 954 -74 49 -151 99 -171 111 l-36 22 -11 -25z"/>
<path d="M1202 8829 c-207 -36 -386 -177 -477 -374 -42 -90 -55 -154 -55 -268
0 -181 59 -319 194 -452 128 -127 267 -185 447 -185 152 0 297 51 406 143 340
289 313 791 -54 1037 -128 85 -314 126 -461 99z"/>
<path d="M9928 8830 c-187 -34 -343 -138 -448 -301 -144 -223 -122 -540 53
-746 131 -154 299 -233 496 -233 180 0 319 58 447 185 135 133 194 271 194
452 0 120 -13 180 -60 278 -85 176 -224 294 -410 349 -66 20 -207 28 -272 16z"/>
<path d="M4115 7796 c-16 -7 -37 -22 -46 -32 -9 -11 -170 -323 -358 -695 -376
-746 -369 -727 -312 -791 19 -22 80 -58 179 -107 165 -80 184 -83 242 -35 44
38 712 1365 714 1419 2 69 -27 96 -195 180 -83 41 -160 75 -172 75 -12 -1 -35
-7 -52 -14z"/>
<path d="M6984 7687 c-71 -35 -139 -69 -152 -76 -33 -18 -62 -70 -61 -111 0
-25 98 -238 332 -725 291 -604 337 -692 366 -712 55 -37 90 -31 258 51 165 81
183 98 183 173 0 29 -75 195 -326 718 -180 374 -334 688 -343 699 -23 26 -65
46 -99 46 -15 0 -86 -28 -158 -63z"/>
<path d="M5665 7489 c-98 -14 -210 -46 -303 -85 l-87 -37 -225 2 c-124 1 -272
4 -330 7 l-105 5 -260 -506 c-143 -279 -280 -547 -304 -595 l-45 -88 118 -146
c77 -95 115 -150 110 -158 -4 -7 -36 -49 -69 -94 -95 -124 -107 -215 -41 -312
75 -110 199 -148 320 -97 16 7 17 5 11 -24 -17 -78 35 -176 124 -232 56 -36
142 -40 208 -10 l42 20 -10 -25 c-33 -88 30 -205 136 -255 70 -32 175 -20 227
28 17 15 18 14 18 -33 0 -94 71 -165 171 -172 75 -6 110 9 158 65 l38 45 66
-45 c137 -94 248 -81 384 47 l64 59 32 -15 c18 -9 59 -21 91 -28 140 -29 253
28 345 174 38 61 39 62 102 75 72 14 144 43 172 69 27 24 51 76 72 155 19 71
35 87 85 87 38 0 127 41 170 77 109 93 120 257 28 420 l-30 54 36 68 c69 132
86 75 -235 756 -155 330 -287 603 -292 606 -5 3 -54 9 -110 12 -101 6 -187 22
-407 77 -238 59 -334 69 -475 49z m-657 -327 c-101 -108 -136 -191 -149 -356
-8 -96 -18 -143 -50 -238 l-39 -118 19 -38 c38 -74 87 -102 178 -102 121 0
264 60 335 139 51 58 73 101 114 225 56 164 109 211 244 211 93 0 137 -21 230
-109 101 -96 192 -175 670 -580 245 -207 458 -395 475 -417 37 -51 42 -132 9
-176 -52 -69 -137 -93 -207 -56 -18 9 -189 127 -382 263 -192 136 -383 270
-424 298 -41 29 -85 52 -98 52 -32 0 -73 -43 -73 -75 0 -46 73 -106 465 -388
411 -294 425 -307 411 -380 -16 -84 -91 -118 -177 -79 -24 11 -201 133 -394
272 -192 138 -358 256 -367 261 -20 11 -66 -5 -84 -29 -15 -19 -18 -70 -6 -88
4 -6 149 -117 323 -246 173 -129 325 -248 337 -263 26 -32 29 -92 8 -134 -25
-47 -88 -63 -154 -40 -17 6 -162 102 -324 215 -204 142 -301 204 -319 204 -18
0 -36 -10 -53 -31 -53 -62 -37 -82 195 -243 127 -89 201 -147 205 -161 14 -54
-48 -115 -117 -115 -21 0 -59 12 -90 29 l-53 28 -1 64 c0 51 -6 74 -28 111
-50 85 -152 122 -228 82 -30 -15 -31 -15 -23 8 12 37 8 110 -9 149 -16 40 -77
103 -122 127 -40 21 -131 21 -172 -1 l-32 -17 10 33 c42 146 -71 297 -223 297
-31 0 -67 -4 -80 -9 -23 -9 -23 -8 -23 74 0 76 -2 87 -30 127 -17 23 -52 58
-79 75 -86 59 -161 65 -229 19 l-32 -22 -82 109 -83 108 252 490 251 489 175
0 175 0 -45 -48z"/>
<path d="M1072 5449 c16 -384 93 -809 215 -1184 48 -149 121 -345 133 -358 4
-4 36 -15 71 -23 115 -27 237 -94 331 -183 98 -93 155 -183 200 -315 29 -83
32 -102 32 -221 1 -120 -10 -191 -40 -268 -10 -26 259 -340 442 -517 259 -249
560 -483 835 -648 l36 -22 12 26 c6 14 128 228 272 476 143 248 256 454 252
458 -4 4 -72 50 -149 102 -182 122 -308 224 -463 373 l-124 121 259 148 c142
82 263 152 267 156 5 4 -174 325 -398 712 l-407 705 -266 -154 c-146 -84 -267
-151 -270 -149 -8 8 -52 186 -77 311 -31 157 -52 328 -61 493 l-7 132 -551 0
-551 0 7 -171z"/>
<path d="M9166 5488 c-8 -151 -28 -315 -56 -468 -21 -112 -74 -327 -82 -335
-3 -3 -124 64 -270 148 l-266 154 -407 -705 c-224 -387 -403 -708 -398 -712 4
-4 125 -74 267 -156 l259 -148 -124 -121 c-155 -149 -281 -251 -463 -373 -77
-52 -145 -98 -149 -102 -4 -4 109 -210 252 -458 144 -248 266 -462 272 -476
l12 -26 36 22 c361 217 771 557 1046 868 151 172 237 281 231 297 -30 77 -41
148 -40 268 0 119 3 138 32 221 45 132 102 222 200 315 94 89 216 156 331 183
35 8 67 19 71 23 12 13 85 209 133 358 122 375 199 800 215 1184 l7 171 -551
0 -551 0 -7 -132z"/>
<path d="M4046 4465 c-61 -21 -88 -46 -118 -105 -34 -65 -37 -144 -9 -205 10
-22 57 -85 104 -139 70 -80 87 -105 87 -130 0 -18 -5 -37 -12 -44 -21 -21
-118 -14 -177 13 l-54 25 7 -37 c3 -21 6 -68 6 -105 l0 -66 53 -13 c84 -21
214 -17 262 8 75 39 114 102 122 194 8 78 -23 140 -120 245 -103 110 -112 129
-77 164 26 26 100 26 159 0 l44 -20 -7 31 c-3 17 -6 64 -6 104 l0 72 -69 12
c-91 14 -147 13 -195 -4z"/>
<path d="M5599 4463 l-106 -4 -6 -317 c-4 -174 -10 -355 -14 -400 l-6 -84 209
4 c237 4 256 9 328 89 78 86 111 207 104 376 -8 166 -50 254 -149 308 -45 24
-63 28 -152 30 -56 1 -150 0 -208 -2z m251 -202 c62 -44 78 -229 29 -328 -34
-66 -65 -86 -146 -91 l-66 -5 6 108 c4 60 7 157 7 217 0 103 1 109 23 118 31
14 117 3 147 -19z"/>
<path d="M4430 4438 c-1 -87 -20 -611 -26 -685 l-6 -93 106 0 106 0 0 78 c0
128 19 655 25 690 l6 32 -106 0 c-102 0 -105 -1 -105 -22z"/>
<path d="M4740 4328 c0 -145 -16 -545 -25 -620 l-6 -48 96 0 95 0 1 123 c1 67
4 176 8 241 l6 120 24 -60 c14 -32 57 -131 96 -219 40 -88 76 -170 79 -182 7
-22 12 -23 127 -23 l119 0 0 63 c0 34 7 202 15 372 8 171 15 322 15 338 l0 27
-88 0 -89 0 -6 -97 c-4 -54 -7 -154 -8 -223 0 -69 -3 -133 -7 -142 -5 -11 -40
62 -107 222 l-100 240 -122 0 -123 0 0 -132z"/>
<path d="M6210 4433 c-1 -97 -21 -622 -26 -690 l-7 -83 107 0 106 0 0 155 0
155 119 0 120 0 3 90 3 90 -117 0 -118 0 0 49 c0 84 -6 81 151 81 l139 0 0 90
0 90 -240 0 -240 0 0 -27z"/>
<path d="M6969 4423 c-10 -32 -245 -612 -293 -726 l-17 -38 112 3 111 3 38
105 37 105 114 0 114 0 25 -107 25 -108 109 0 c83 0 107 3 103 13 -6 17 -182
636 -203 720 l-18 67 -122 0 -122 0 -13 -37z m171 -350 c0 -9 -19 -13 -60 -13
-33 0 -60 2 -60 4 0 4 43 122 62 170 12 29 13 27 35 -60 12 -49 23 -95 23
-101z"/>
<path d="M1155 3784 c-108 -26 -202 -81 -291 -169 -135 -133 -194 -271 -194
-452 0 -114 13 -178 55 -268 81 -176 220 -297 410 -357 104 -33 260 -31 372 6
188 61 350 219 413 401 122 354 -85 743 -446 835 -92 24 -230 25 -319 4z"/>
<path d="M9862 3780 c-358 -94 -563 -483 -442 -835 63 -182 225 -340 413 -401
112 -37 268 -39 372 -6 190 60 329 181 410 357 42 90 55 154 55 268 0 181 -59
319 -194 452 -90 90 -183 143 -296 169 -89 21 -228 19 -318 -4z"/>
<path d="M4850 2580 l0 -310 -27 6 c-211 50 -448 137 -682 250 -96 47 -178 81
-182 77 -4 -5 -125 -213 -269 -463 -145 -250 -267 -460 -272 -467 -6 -8 27
-30 114 -77 304 -161 667 -300 1008 -386 137 -34 400 -86 486 -96 60 -6 62 -6
84 24 62 83 233 189 370 228 91 26 289 26 380 0 137 -39 308 -145 370 -228 22
-30 24 -30 84 -24 86 10 349 62 486 96 341 86 704 225 1008 386 87 47 120 69
114 77 -5 7 -127 217 -272 467 -144 250 -265 458 -269 463 -4 4 -86 -30 -182
-77 -234 -113 -471 -200 -681 -250 l-28 -6 0 310 0 310 -820 0 -820 0 0 -310z"/>
<path d="M5585 1281 c-227 -37 -407 -171 -499 -373 -44 -95 -58 -160 -58 -261
-1 -110 16 -186 62 -282 65 -136 169 -240 305 -305 97 -47 159 -60 275 -60
116 0 178 13 275 60 177 85 318 262 356 445 15 76 15 209 -1 277 -30 130 -120
274 -223 357 -133 109 -334 167 -492 142z"/>
</g>
</svg>
