<?xml version="1.0" standalone="no"?>
<!DOCTYPE svg PUBLIC "-//W3C//DTD SVG 20010904//EN"
 "http://www.w3.org/TR/2001/REC-SVG-20010904/DTD/svg10.dtd">
<svg version="1.0" xmlns="http://www.w3.org/2000/svg"
 width="260.000000pt" height="260.000000pt" viewBox="0 0 260.000000 260.000000"
 preserveAspectRatio="xMidYMid meet">
<metadata>
Created by potrace 1.11, written by Peter Selinger 2001-2013
</metadata>
<g transform="translate(0.000000,260.000000) scale(0.100000,-0.100000)"
fill="#000000" stroke="none">
<path d="M769 2445 c-2 -2 -25 -6 -51 -8 -26 -3 -53 -9 -59 -12 -10 -7 -7
-135 6 -245 2 -19 7 -100 10 -180 4 -80 8 -192 11 -250 5 -111 5 -849 0 -1283
-2 -185 1 -262 9 -274 10 -13 36 -16 136 -18 491 -10 480 -10 490 5 8 13 6 99
-7 255 -14 181 -14 231 0 250 13 18 24 20 138 16 274 -9 431 -5 498 13 303 81
499 318 559 675 13 78 13 264 1 356 -31 227 -153 429 -332 552 -103 71 -200
108 -358 139 -36 7 -1044 16 -1051 9z m1096 -69 c159 -35 275 -96 381 -201
157 -154 227 -341 226 -606 -1 -316 -114 -566 -320 -710 -64 -46 -138 -76
-233 -97 -87 -19 -196 -21 -491 -8 -150 6 -179 -25 -172 -184 2 -47 6 -105 9
-130 3 -24 8 -85 11 -135 l5 -91 -53 3 c-29 1 -147 4 -263 7 -116 3 -215 5
-220 5 -8 1 -11 241 -10 774 0 719 -4 928 -22 1182 -4 55 -7 123 -7 150 l-1
50 45 6 c25 3 268 5 540 4 433 -1 505 -3 575 -19z"/>
<path d="M778 2343 c-26 -4 -27 -6 -23 -56 4 -57 10 -152 22 -352 4 -71 8
-473 7 -893 0 -532 3 -762 10 -763 6 0 107 -3 224 -5 l214 -5 -7 68 c-33 347
-27 395 52 445 36 22 45 23 188 19 332 -7 381 -6 463 13 265 60 454 304 488
626 37 353 -59 608 -290 771 -72 51 -191 102 -266 114 -25 4 -54 10 -65 13
-23 6 -976 10 -1017 5z m897 -318 c146 -29 259 -136 302 -289 25 -85 26 -242
3 -332 -42 -162 -137 -255 -297 -288 -80 -17 -335 -13 -392 5 -106 35 -106 34
-106 444 0 312 2 344 19 382 22 50 60 71 149 82 76 9 268 7 322 -4z"/>
<path d="M1408 1985 c-2 -2 -30 -5 -63 -9 -45 -5 -66 -12 -85 -31 l-25 -25 0
-338 c0 -185 3 -349 7 -363 8 -26 36 -44 88 -55 48 -10 266 -12 324 -2 151 23
246 111 281 260 42 179 -5 385 -108 473 -78 67 -147 87 -304 90 -62 1 -114 1
-115 0z m252 -60 c87 -19 160 -74 199 -150 54 -106 57 -301 4 -412 -51 -110
-144 -155 -318 -157 -105 -2 -243 9 -252 18 -8 8 -12 126 -12 391 0 249 1 281
16 296 22 22 279 32 363 14z"/>
<path d="M535 2370 c-28 -10 -61 -22 -75 -27 -19 -8 -34 -5 -69 13 -63 34
-139 33 -180 -2 -35 -30 -48 -69 -45 -139 1 -27 3 -62 3 -77 l1 -28 221 0 220
0 -3 48 -3 47 -71 -2 c-64 -2 -72 -1 -77 17 -6 24 -9 22 76 50 l68 22 -6 46
c-3 26 -7 47 -8 48 -1 2 -25 -6 -52 -16z m-183 -92 c17 -13 21 -28 19 -60 -2
-27 -107 -26 -114 1 -13 51 53 92 95 59z"/>
<path d="M508 2061 c-2 -9 -1 -35 2 -58 8 -52 -3 -73 -40 -73 -29 0 -29 1 -32
63 l-3 62 -52 3 -53 3 3 -63 2 -63 -33 -3 -34 -3 4 71 4 71 -49 -4 c-26 -3
-50 -7 -53 -10 -4 -4 -7 -150 -4 -212 0 -6 83 -10 227 -10 l228 1 -3 109 c-2
61 -6 113 -10 116 -4 4 -28 9 -54 11 -38 4 -48 2 -50 -11z"/>
<path d="M169 1800 c-2 -13 1 -223 3 -226 2 -1 26 -4 53 -6 l50 -3 -2 38 -2
38 162 -1 c89 -1 170 -1 180 -1 13 1 17 10 17 46 0 29 -5 45 -12 46 -7 1 -88
1 -180 -1 l-168 -2 0 40 0 40 -50 -1 c-27 -1 -50 -4 -51 -7z"/>
<path d="M170 1487 l0 -48 120 4 c66 2 120 1 120 -3 0 -4 -51 -33 -112 -65
-62 -32 -118 -63 -124 -69 -6 -6 -9 -27 -7 -48 l5 -37 229 1 229 0 0 47 0 47
-122 -4 c-68 -2 -119 0 -115 4 5 5 59 36 120 70 l112 62 3 41 3 41 -163 1
c-90 0 -193 1 -230 3 l-68 2 0 -49z"/>
<path d="M430 1144 c-107 -30 -212 -58 -232 -64 -36 -10 -38 -13 -38 -54 l0
-44 82 -21 c46 -12 90 -23 99 -25 8 -2 69 -18 134 -35 157 -41 157 -41 157 9
0 44 -3 50 -34 58 -31 8 -33 11 -34 53 -2 49 9 69 38 69 23 0 37 34 31 75 -3
17 -6 31 -6 31 -1 1 -90 -22 -197 -52z m20 -119 c0 -29 -6 -30 -75 -11 l-50
13 35 11 c19 5 47 11 63 11 22 1 27 -3 27 -24z"/>
<path d="M172 791 l3 -46 70 -1 c39 -1 75 -2 81 -3 12 -1 13 -105 2 -117 -4
-4 -42 -6 -83 -5 l-75 2 0 -48 0 -48 222 0 c137 0 226 4 230 10 4 6 8 27 8 48
0 41 3 40 -122 37 -63 -2 -61 -4 -60 68 1 58 2 59 96 55 l86 -2 0 49 0 49
-230 -1 -231 -1 3 -46z"/>
<path d="M1900 600 l-56 -5 1 -75 c1 -61 -3 -85 -24 -127 -13 -29 -28 -50 -32
-47 -17 10 -43 114 -43 179 l-1 70 -60 3 -61 3 2 -73 c0 -49 -6 -92 -19 -132
-19 -55 -21 -58 -35 -40 -32 42 -46 91 -46 164 l-1 75 -54 3 c-34 2 -57 -1
-62 -9 -4 -6 -6 -44 -4 -83 2 -65 7 -80 63 -186 l60 -115 52 0 52 0 22 53 c13
29 26 53 31 53 5 0 18 -24 31 -53 l22 -53 52 0 52 0 64 124 c64 122 65 126 63
198 -1 40 -4 75 -8 76 -3 1 -31 0 -61 -3z"/>
<path d="M2061 428 c-46 -95 -90 -188 -98 -205 l-13 -33 75 0 c67 0 75 2 86
23 18 33 28 37 111 37 76 0 78 -1 93 -30 15 -30 17 -30 95 -30 44 0 80 3 80 6
0 10 -189 376 -202 391 -6 8 -36 13 -77 13 l-66 0 -84 -172z m182 -24 c9 -25
15 -49 12 -54 -5 -7 -73 -6 -81 3 -6 5 37 97 46 97 3 0 13 -21 23 -46z"/>
<path d="M269 480 c-42 -12 -76 -39 -89 -69 -12 -29 -17 -187 -6 -198 3 -3 49
-5 103 -3 54 1 152 3 218 4 l120 1 6 43 c3 24 2 45 -2 48 -5 3 -26 4 -48 2
-50 -2 -56 3 -52 53 3 52 -19 85 -72 110 -44 19 -130 24 -178 9z m138 -107 c7
-9 11 -25 8 -37 -2 -12 -4 -24 -4 -27 -1 -8 -98 -9 -123 -2 -21 5 -25 55 -5
71 29 24 104 21 124 -5z"/>
</g>
</svg>
